<?xml version="1.0" standalone="no"?>
<!DOCTYPE svg PUBLIC "-//W3C//DTD SVG 20010904//EN"
 "http://www.w3.org/TR/2001/REC-SVG-20010904/DTD/svg10.dtd">
<svg version="1.0" xmlns="http://www.w3.org/2000/svg"
 width="880.000000pt" height="880.000000pt" viewBox="0 0 880.000000 880.000000"
 fill="#b3b3b3"
 preserveAspectRatio="xMidYMid meet">
<metadata>
Created by potrace 1.16, written by Peter Selinger 2001-2019
</metadata>
<g transform="translate(0.000000,880.000000) scale(0.100000,-0.100000)" stroke="none">
<path d="M5121 7870 c-1 -160 50 -350 137 -512 2 -3 -7 -8 -19 -10 -18 -3 -13
-10 40 -52 34 -27 60 -51 58 -52 -2 -2 -38 3 -81 11 -93 18 -225 19 -298 4
-49 -11 -51 -13 -28 -22 14 -6 69 -30 123 -55 96 -44 127 -69 65 -51 -18 5
-78 9 -134 9 -107 0 -209 -21 -299 -61 l-50 -23 78 -13 c43 -8 93 -19 110 -27
l32 -13 -58 -7 c-135 -17 -298 -81 -377 -147 l-35 -28 122 -1 c67 0 129 -3
138 -6 10 -4 -18 -16 -74 -30 -93 -24 -170 -59 -257 -114 l-48 -30 75 -1 c65
-1 152 -15 108 -18 -52 -3 -321 -167 -367 -223 -11 -14 -7 -15 32 -11 80 9 87
-3 25 -44 -56 -37 -229 -205 -229 -222 0 -5 22 -4 52 5 29 7 54 12 55 10 2 -2
-26 -29 -62 -60 l-65 -57 -97 11 c-165 20 -335 81 -424 152 -19 15 -14 14 26
-5 79 -38 173 -67 244 -76 75 -10 86 -7 45 11 -54 23 -189 110 -242 155 -60
51 -145 155 -185 225 -35 61 -83 209 -91 278 l-6 55 30 -79 c26 -70 100 -210
107 -203 1 2 -5 30 -14 62 -22 82 -22 269 1 355 19 71 83 210 116 250 15 19
12 8 -11 -44 -17 -38 -33 -95 -36 -125 l-5 -56 39 60 c89 136 227 253 348 296
33 12 94 23 135 26 l75 4 -94 -26 c-52 -13 -98 -28 -102 -32 -4 -5 29 -8 74
-9 101 0 169 -22 259 -81 78 -51 131 -111 188 -213 l42 -75 -6 61 c-22 241
-187 470 -427 590 -298 150 -708 152 -1048 6 l-86 -37 115 -11 c63 -6 142 -17
175 -24 57 -12 189 -59 183 -65 -2 -2 -30 3 -63 11 -78 18 -269 19 -366 0
-154 -29 -336 -106 -479 -201 -140 -94 -295 -259 -425 -454 -93 -140 -218
-386 -250 -490 l-7 -25 33 23 c135 88 296 139 459 146 89 4 98 3 60 -6 -118
-28 -231 -63 -319 -100 l-97 -40 -53 -89 c-97 -165 -176 -394 -202 -588 -15
-112 -6 -384 16 -482 26 -120 72 -246 132 -367 72 -146 83 -155 83 -72 1 147
49 380 111 536 41 103 74 166 131 251 49 72 77 101 40 40 -58 -94 -143 -301
-129 -314 3 -3 8 5 12 18 14 45 98 163 159 224 134 133 305 215 504 238 73 9
65 0 -14 -13 -102 -18 -214 -57 -274 -95 -65 -42 -62 -45 12 -11 66 30 198 65
246 65 l35 0 -62 -56 c-198 -180 -309 -497 -285 -819 l7 -90 32 132 c34 137
70 242 113 328 35 71 94 166 100 160 3 -2 -2 -15 -11 -28 -24 -37 -76 -164
-91 -225 l-15 -57 27 35 c90 119 255 261 367 318 61 30 162 59 240 67 81 8 79
-6 -5 -24 -30 -6 -77 -24 -104 -39 -43 -23 -55 -38 -88 -102 -81 -158 -118
-322 -117 -512 0 -132 11 -227 21 -198 3 8 18 51 33 95 31 91 100 225 155 299
20 28 67 79 104 114 37 34 65 62 62 62 -10 0 -113 -64 -166 -103 -41 -30 -49
-33 -30 -13 35 39 146 119 205 149 121 60 315 91 430 69 61 -13 71 -8 18 8
-53 17 -259 24 -313 11 -63 -14 -62 -6 2 14 74 23 225 31 310 15 69 -12 90
-28 71 -53 -14 -17 -59 -140 -78 -212 -22 -85 -30 -236 -16 -323 26 -169 106
-329 234 -470 27 -30 48 -51 46 -46 -2 5 -19 41 -38 79 -34 69 -53 167 -34
178 5 3 31 -21 57 -54 133 -164 377 -304 639 -367 109 -26 119 -27 357 -23
621 9 747 7 859 -18 119 -25 238 -69 294 -106 20 -14 37 -23 37 -20 0 17 -60
80 -114 121 -192 145 -520 245 -931 284 -420 41 -680 158 -798 361 -25 44 -54
135 -45 144 3 3 36 -9 74 -26 223 -102 510 -176 745 -194 l87 -7 86 128 c47
70 85 128 84 129 -2 1 -38 7 -80 13 -191 29 -355 118 -409 224 -52 103 -45
205 25 353 41 85 160 265 176 265 4 0 38 -29 76 -64 78 -72 128 -149 161 -245
l22 -66 1 90 c0 175 -56 310 -185 443 -44 45 -85 82 -92 82 -20 0 -226 -209
-286 -290 -94 -128 -163 -269 -187 -386 -11 -53 -13 -55 -30 -39 -24 22 -59
104 -66 158 -12 88 86 322 224 533 129 197 355 440 567 609 179 143 406 223
552 196 43 -9 59 -18 104 -66 61 -65 171 -123 283 -151 88 -22 67 -38 -45 -32
-43 2 -79 0 -79 -3 0 -10 71 -57 112 -74 21 -8 70 -20 110 -25 40 -6 84 -19
98 -29 32 -23 90 -134 90 -171 0 -67 -60 -63 -132 9 -54 54 -60 47 -23 -24 13
-27 23 -50 21 -52 -6 -6 -118 57 -158 88 -21 17 -41 29 -43 27 -10 -10 56 -98
92 -123 38 -27 38 -27 8 -20 -48 10 -240 95 -310 136 -36 21 -65 34 -65 30 0
-16 157 -160 214 -196 162 -103 329 -153 536 -161 l135 -6 -52 31 c-80 47
-123 125 -123 220 0 65 9 91 31 91 28 0 150 -120 244 -240 150 -192 254 -270
411 -310 45 -12 107 -20 148 -19 l71 1 -85 18 c-203 43 -320 122 -485 327
-102 128 -231 318 -240 355 -4 15 -4 37 0 49 7 21 9 20 27 -17 10 -21 25 -46
33 -54 13 -13 15 -12 15 7 0 11 6 26 14 32 11 9 14 3 19 -34 2 -25 13 -55 22
-65 18 -20 18 -20 29 2 19 38 34 32 42 -17 10 -69 94 -172 94 -117 0 21 24 52
41 52 5 0 9 -12 9 -26 0 -30 14 -60 43 -91 26 -29 37 -29 37 0 0 41 39 66 135
86 100 21 139 50 133 100 -3 22 -17 33 -98 73 -76 37 -107 60 -155 111 -77 82
-213 278 -237 340 -51 133 2 337 129 504 19 25 33 47 31 49 -9 9 -128 -73
-181 -124 -71 -69 -118 -145 -148 -236 l-23 -69 -23 29 c-39 48 -110 203 -137
300 -29 102 -53 235 -63 338 l-6 70 -33 -38 c-57 -65 -69 -119 -69 -299 0
-110 -3 -153 -10 -142 -5 10 -27 39 -48 66 -31 39 -40 62 -49 116 -19 124 22
314 103 476 l39 77 -37 -15 c-146 -61 -240 -204 -277 -424 -9 -52 -16 -110
-16 -129 0 -18 -3 -32 -7 -30 -5 2 -41 20 -80 40 -40 19 -101 43 -137 53 -75
20 -129 63 -242 193 -86 99 -151 194 -216 317 l-47 90 0 -55z"/>
<path d="M5434 5773 c16 -110 17 -152 6 -255 -26 -244 -102 -459 -276 -778
-119 -217 -218 -374 -268 -424 l-34 -34 107 -6 c58 -4 123 -8 143 -10 21 -2
46 3 56 10 27 19 239 256 293 329 139 184 219 333 240 448 7 37 16 67 20 67 4
0 41 -39 82 -86 85 -98 181 -251 234 -375 38 -87 103 -271 97 -277 -1 -2 -53
28 -116 67 -120 75 -375 207 -419 217 -25 5 -35 -5 -122 -117 l-95 -123 66
-22 c384 -125 780 -456 1027 -856 26 -43 51 -78 55 -78 23 0 37 367 21 536
-48 497 -186 800 -605 1319 -155 192 -394 422 -488 471 l-30 16 6 -39z"/>
<path d="M4720 3913 l-86 -4 -37 -148 c-41 -164 -44 -209 -22 -296 32 -121
135 -244 252 -301 51 -25 69 -29 148 -29 78 0 97 4 140 27 93 49 190 170 241
299 10 24 22 47 28 51 34 23 157 -2 256 -52 119 -60 298 -215 365 -316 82
-123 155 -299 196 -469 22 -95 48 -277 49 -339 l0 -40 -29 46 c-37 58 -127
148 -223 225 -80 63 -288 206 -355 243 l-42 23 85 83 c47 46 88 83 91 84 6 1
16 -29 62 -185 20 -70 22 -72 123 -160 101 -87 103 -88 106 -60 14 115 -88
385 -218 582 l-54 81 -73 -78 c-40 -43 -117 -112 -171 -153 -106 -81 -350
-247 -364 -247 -4 0 -8 -4 -8 -10 0 -5 13 -10 29 -10 91 0 311 -92 460 -193
212 -142 470 -387 659 -625 78 -98 73 -103 92 94 15 152 8 426 -15 564 -61
367 -215 689 -435 910 -67 67 -102 93 -165 124 -199 96 -351 134 -572 143 -84
3 -153 3 -153 0 0 -3 16 -38 35 -79 39 -80 39 -104 9 -215 -39 -137 -139 -154
-228 -37 -95 124 -81 280 41 452 l15 22 -73 -2 c-41 -1 -112 -4 -159 -5z"/>
<path d="M5890 2288 c-1 -119 -54 -390 -107 -541 -101 -293 -303 -547 -434
-547 -40 0 -91 30 -120 70 -42 56 -89 233 -89 329 0 135 82 221 211 221 67 0
109 -60 138 -193 l18 -82 25 40 c38 61 73 133 98 205 18 51 24 91 26 190 3
118 3 122 -9 75 -21 -81 -53 -132 -106 -168 -23 -15 -26 -15 -60 12 -189 148
-366 102 -471 -122 -59 -125 -93 -249 -93 -332 1 -116 53 -304 114 -411 29
-51 96 -121 137 -143 98 -52 260 -17 397 87 62 47 189 191 250 282 108 162
193 361 229 535 9 44 23 141 31 215 l14 135 -92 93 c-50 50 -95 92 -99 92 -5
0 -8 -19 -8 -42z"/>
</g>
</svg>
